# xmcd CD database file
#
# Track frame offsets:
#	150
#	27924
#	53671
#	66918
#	79768
#	86770
#	103414
#	118256
#	138488
#	156800
#	169452
#	189844
#	246344
#	260646
#
# Disc length: 3734 seconds
#
# Revision: 0
# Processed by: cddbd v1.5.1PL2 Copyright (c) Steve Scherf et al.
# Submitted via: CDex 1.51
#
DISCID=ca0e940e
DTITLE=KULA SHAKER - Peasants, Pigs and Astronauts
DYEAR=1999
DGENRE=Rock
TTITLE0=GREAT HOSANNAH
TTITLE1=MYSTICAL MACHINE GUN
TTITLE2=S.O.S.
TTITLE3=RADHE RADHE
TTITLE4=I’M STILL HERE
TTITLE5=SHOWER YOUR LOVE
TTITLE6=108BATTLES(OF THE MIND)
TTITLE7=SOUND OF DRUMS
TTITLE8=TIMEWORM
TTITLE9=LAST FAREWELL
TTITLE10=GOLDEN AVATAR
TTITLE11=NAMAMI NANDA-NANDANA
TTITLE12=BONUS TRACK1
TTITLE13=BONUS TRACK2
EXTD=YEAR: 1999
EXTT0=
EXTT1=
EXTT2=
EXTT3=
EXTT4=
EXTT5=
EXTT6=
EXTT7=
EXTT8=
EXTT9=
EXTT10=
EXTT11=
EXTT12=
EXTT13=
PLAYORDER=
